<mxfile host="app.diagrams.net" modified="2023-10-04T14:18:01.465Z" agent="Mozilla/5.0 (X11; Linux x86_64) AppleWebKit/537.36 (KHTML, like Gecko) Chrome/114.0.0.0 Safari/537.36" etag="MeaLvyQS1enkqACf6JO5" version="22.0.0" type="github" pages="3">
  <diagram id="TwvEw9Vf0ExjZlHMgmwK" name="Option_1">
    <mxGraphModel dx="2004" dy="1125" grid="0" gridSize="10" guides="1" tooltips="1" connect="1" arrows="1" fold="1" page="1" pageScale="1" pageWidth="850" pageHeight="1100" math="0" shadow="0">
      <root>
        <mxCell id="0" />
        <mxCell id="1" parent="0" />
        <mxCell id="FPOTciErqWgksEpXQeqM-1" value="" style="rounded=0;whiteSpace=wrap;html=1;fillColor=#eeeeee;strokeColor=#36393d;" parent="1" vertex="1">
          <mxGeometry x="69" y="96" width="775" height="214" as="geometry" />
        </mxCell>
        <mxCell id="4yiuB51oUjneCi9A5fvg-3" value="" style="group" parent="1" vertex="1" connectable="0">
          <mxGeometry x="112" y="125" width="120" height="140" as="geometry" />
        </mxCell>
        <mxCell id="FPOTciErqWgksEpXQeqM-2" value="20S&lt;br&gt;MODULE" style="rounded=0;whiteSpace=wrap;html=1;fillColor=#fff2cc;strokeColor=#d6b656;" parent="4yiuB51oUjneCi9A5fvg-3" vertex="1">
          <mxGeometry width="120" height="140" as="geometry" />
        </mxCell>
        <mxCell id="4yiuB51oUjneCi9A5fvg-2" value="MCU" style="rounded=0;whiteSpace=wrap;html=1;fillColor=#d5e8d4;strokeColor=#82b366;" parent="4yiuB51oUjneCi9A5fvg-3" vertex="1">
          <mxGeometry x="10" y="105" width="100" height="30" as="geometry" />
        </mxCell>
        <mxCell id="4yiuB51oUjneCi9A5fvg-4" value="" style="group" parent="1" vertex="1" connectable="0">
          <mxGeometry x="240" y="125" width="120" height="140" as="geometry" />
        </mxCell>
        <mxCell id="4yiuB51oUjneCi9A5fvg-5" value="20S&lt;br&gt;MODULE" style="rounded=0;whiteSpace=wrap;html=1;fillColor=#fff2cc;strokeColor=#d6b656;" parent="4yiuB51oUjneCi9A5fvg-4" vertex="1">
          <mxGeometry width="120" height="140" as="geometry" />
        </mxCell>
        <mxCell id="4yiuB51oUjneCi9A5fvg-6" value="MCU" style="rounded=0;whiteSpace=wrap;html=1;fillColor=#d5e8d4;strokeColor=#82b366;" parent="4yiuB51oUjneCi9A5fvg-4" vertex="1">
          <mxGeometry x="10" y="105" width="100" height="30" as="geometry" />
        </mxCell>
        <mxCell id="4yiuB51oUjneCi9A5fvg-7" value="" style="group" parent="1" vertex="1" connectable="0">
          <mxGeometry x="526" y="125" width="120" height="140" as="geometry" />
        </mxCell>
        <mxCell id="4yiuB51oUjneCi9A5fvg-8" value="20S&lt;br&gt;MODULE" style="rounded=0;whiteSpace=wrap;html=1;fillColor=#fff2cc;strokeColor=#d6b656;" parent="4yiuB51oUjneCi9A5fvg-7" vertex="1">
          <mxGeometry width="120" height="140" as="geometry" />
        </mxCell>
        <mxCell id="4yiuB51oUjneCi9A5fvg-9" value="MCU" style="rounded=0;whiteSpace=wrap;html=1;fillColor=#d5e8d4;strokeColor=#82b366;" parent="4yiuB51oUjneCi9A5fvg-7" vertex="1">
          <mxGeometry x="10" y="105" width="100" height="30" as="geometry" />
        </mxCell>
        <mxCell id="4yiuB51oUjneCi9A5fvg-10" value="" style="group" parent="1" vertex="1" connectable="0">
          <mxGeometry x="652" y="125" width="120" height="140" as="geometry" />
        </mxCell>
        <mxCell id="4yiuB51oUjneCi9A5fvg-11" value="20S&lt;br&gt;MODULE" style="rounded=0;whiteSpace=wrap;html=1;fillColor=#fff2cc;strokeColor=#d6b656;" parent="4yiuB51oUjneCi9A5fvg-10" vertex="1">
          <mxGeometry width="120" height="140" as="geometry" />
        </mxCell>
        <mxCell id="4yiuB51oUjneCi9A5fvg-12" value="MCU" style="rounded=0;whiteSpace=wrap;html=1;fillColor=#d5e8d4;strokeColor=#82b366;" parent="4yiuB51oUjneCi9A5fvg-10" vertex="1">
          <mxGeometry x="10" y="105" width="100" height="30" as="geometry" />
        </mxCell>
        <mxCell id="4yiuB51oUjneCi9A5fvg-13" value="" style="shape=curlyBracket;whiteSpace=wrap;html=1;rounded=1;flipH=1;fillColor=#B3B3B3;rotation=90;" parent="1" vertex="1">
          <mxGeometry x="434.25" y="-74.25" width="35" height="688.5" as="geometry" />
        </mxCell>
        <mxCell id="4yiuB51oUjneCi9A5fvg-14" value="9 modules" style="text;html=1;strokeColor=none;fillColor=none;align=center;verticalAlign=middle;whiteSpace=wrap;rounded=0;fontStyle=1" parent="1" vertex="1">
          <mxGeometry x="409.25" y="287" width="85" height="20" as="geometry" />
        </mxCell>
        <mxCell id="4yiuB51oUjneCi9A5fvg-21" value="BCU" style="rounded=0;whiteSpace=wrap;html=1;fillColor=#f8cecc;strokeColor=#b85450;container=1;direction=south;" parent="1" vertex="1">
          <mxGeometry x="808" y="153" width="30" height="100" as="geometry">
            <mxRectangle x="10" y="105" width="54" height="18" as="alternateBounds" />
          </mxGeometry>
        </mxCell>
        <mxCell id="4yiuB51oUjneCi9A5fvg-29" style="edgeStyle=orthogonalEdgeStyle;rounded=0;orthogonalLoop=1;jettySize=auto;html=1;exitX=1;exitY=0.5;exitDx=0;exitDy=0;entryX=0.02;entryY=0.062;entryDx=0;entryDy=0;entryPerimeter=0;dashed=1;endArrow=none;endFill=0;" parent="1" source="4yiuB51oUjneCi9A5fvg-28" target="FPOTciErqWgksEpXQeqM-2" edge="1">
          <mxGeometry relative="1" as="geometry">
            <Array as="points">
              <mxPoint x="96" y="134" />
            </Array>
          </mxGeometry>
        </mxCell>
        <mxCell id="4yiuB51oUjneCi9A5fvg-30" style="edgeStyle=orthogonalEdgeStyle;rounded=0;orthogonalLoop=1;jettySize=auto;html=1;exitX=0;exitY=0.5;exitDx=0;exitDy=0;entryX=-0.008;entryY=0.892;entryDx=0;entryDy=0;dashed=1;endArrow=none;endFill=0;strokeColor=#000000;entryPerimeter=0;" parent="1" source="4yiuB51oUjneCi9A5fvg-28" target="FPOTciErqWgksEpXQeqM-2" edge="1">
          <mxGeometry relative="1" as="geometry">
            <Array as="points">
              <mxPoint x="96" y="250" />
            </Array>
          </mxGeometry>
        </mxCell>
        <mxCell id="4yiuB51oUjneCi9A5fvg-28" value="~72 VDC" style="text;html=1;strokeColor=none;fillColor=none;align=center;verticalAlign=middle;whiteSpace=wrap;rounded=0;rotation=-90;" parent="1" vertex="1">
          <mxGeometry x="61" y="177.5" width="70" height="20" as="geometry" />
        </mxCell>
        <mxCell id="4yiuB51oUjneCi9A5fvg-32" style="edgeStyle=orthogonalEdgeStyle;rounded=0;orthogonalLoop=1;jettySize=auto;html=1;exitX=0;exitY=0.5;exitDx=0;exitDy=0;dashed=1;endArrow=none;endFill=0;strokeColor=#000000;" parent="1" source="4yiuB51oUjneCi9A5fvg-31" edge="1">
          <mxGeometry relative="1" as="geometry">
            <mxPoint x="70" y="97" as="targetPoint" />
          </mxGeometry>
        </mxCell>
        <mxCell id="4yiuB51oUjneCi9A5fvg-33" style="edgeStyle=orthogonalEdgeStyle;rounded=0;orthogonalLoop=1;jettySize=auto;html=1;exitX=1;exitY=0.5;exitDx=0;exitDy=0;entryX=1;entryY=0;entryDx=0;entryDy=0;dashed=1;endArrow=none;endFill=0;strokeColor=#000000;" parent="1" source="4yiuB51oUjneCi9A5fvg-31" target="FPOTciErqWgksEpXQeqM-1" edge="1">
          <mxGeometry relative="1" as="geometry">
            <mxPoint x="806" y="127.99999999999989" as="targetPoint" />
            <Array as="points">
              <mxPoint x="844" y="73" />
            </Array>
          </mxGeometry>
        </mxCell>
        <mxCell id="4yiuB51oUjneCi9A5fvg-31" value="~648 VDC" style="text;html=1;strokeColor=none;fillColor=none;align=center;verticalAlign=middle;whiteSpace=wrap;rounded=0;rotation=0;" parent="1" vertex="1">
          <mxGeometry x="425" y="63" width="70" height="20" as="geometry" />
        </mxCell>
        <mxCell id="4yiuB51oUjneCi9A5fvg-34" value="&lt;b&gt;&lt;br&gt;........................................&lt;/b&gt;" style="text;html=1;strokeColor=none;fillColor=none;align=center;verticalAlign=middle;whiteSpace=wrap;rounded=0;" parent="1" vertex="1">
          <mxGeometry x="372.25" y="175" width="159" height="20" as="geometry" />
        </mxCell>
        <mxCell id="4yiuB51oUjneCi9A5fvg-35" value="180S Pack" style="text;html=1;strokeColor=none;fillColor=none;align=center;verticalAlign=middle;whiteSpace=wrap;rounded=0;" parent="1" vertex="1">
          <mxGeometry x="412" y="43" width="105" height="17" as="geometry" />
        </mxCell>
        <mxCell id="xlh3ww8DrCwgxQ4BuxXP-1" style="edgeStyle=orthogonalEdgeStyle;rounded=0;orthogonalLoop=1;jettySize=auto;html=1;exitX=1;exitY=0.5;exitDx=0;exitDy=0;entryX=0;entryY=0.5;entryDx=0;entryDy=0;endArrow=none;endFill=0;strokeColor=#82b366;shape=link;fillColor=#d5e8d4;strokeWidth=1;" parent="1" source="4yiuB51oUjneCi9A5fvg-2" target="4yiuB51oUjneCi9A5fvg-6" edge="1">
          <mxGeometry relative="1" as="geometry" />
        </mxCell>
        <mxCell id="xlh3ww8DrCwgxQ4BuxXP-2" style="edgeStyle=orthogonalEdgeStyle;shape=link;rounded=0;orthogonalLoop=1;jettySize=auto;html=1;exitX=1;exitY=0.5;exitDx=0;exitDy=0;entryX=0;entryY=0.5;entryDx=0;entryDy=0;endArrow=none;endFill=0;strokeColor=#82b366;strokeWidth=1;fillColor=#d5e8d4;" parent="1" source="4yiuB51oUjneCi9A5fvg-6" target="4yiuB51oUjneCi9A5fvg-9" edge="1">
          <mxGeometry relative="1" as="geometry" />
        </mxCell>
        <mxCell id="xlh3ww8DrCwgxQ4BuxXP-3" style="edgeStyle=orthogonalEdgeStyle;shape=link;rounded=0;orthogonalLoop=1;jettySize=auto;html=1;exitX=1;exitY=0.5;exitDx=0;exitDy=0;entryX=0;entryY=0.5;entryDx=0;entryDy=0;endArrow=none;endFill=0;strokeColor=#82b366;strokeWidth=1;fillColor=#d5e8d4;" parent="1" source="4yiuB51oUjneCi9A5fvg-9" target="4yiuB51oUjneCi9A5fvg-12" edge="1">
          <mxGeometry relative="1" as="geometry" />
        </mxCell>
        <mxCell id="xlh3ww8DrCwgxQ4BuxXP-33" value="" style="shape=curlyBracket;whiteSpace=wrap;html=1;rounded=1;flipH=1;fillColor=#B3B3B3;rotation=-180;" parent="1" vertex="1">
          <mxGeometry x="45" y="56" width="35" height="615" as="geometry" />
        </mxCell>
        <mxCell id="xlh3ww8DrCwgxQ4BuxXP-36" value="4 parallel packs" style="text;html=1;strokeColor=none;fillColor=none;align=center;verticalAlign=middle;whiteSpace=wrap;rounded=0;fontStyle=1;rotation=-90;" parent="1" vertex="1">
          <mxGeometry x="-56" y="403.5" width="177.5" height="20" as="geometry" />
        </mxCell>
        <mxCell id="xlh3ww8DrCwgxQ4BuxXP-40" style="edgeStyle=orthogonalEdgeStyle;shape=link;rounded=0;orthogonalLoop=1;jettySize=auto;html=1;exitX=1;exitY=0.5;exitDx=0;exitDy=0;entryX=0.5;entryY=1;entryDx=0;entryDy=0;endArrow=none;endFill=0;strokeColor=#82b366;strokeWidth=1;fillColor=#d5e8d4;" parent="1" source="4yiuB51oUjneCi9A5fvg-12" target="4yiuB51oUjneCi9A5fvg-21" edge="1">
          <mxGeometry relative="1" as="geometry" />
        </mxCell>
        <mxCell id="xlh3ww8DrCwgxQ4BuxXP-43" value="" style="rounded=0;whiteSpace=wrap;html=1;fillColor=#eeeeee;strokeColor=#36393d;" parent="1" vertex="1">
          <mxGeometry x="70" y="452.25" width="775" height="214" as="geometry" />
        </mxCell>
        <mxCell id="xlh3ww8DrCwgxQ4BuxXP-42" style="edgeStyle=orthogonalEdgeStyle;shape=link;rounded=0;orthogonalLoop=1;jettySize=auto;html=1;exitX=0.5;exitY=1;exitDx=0;exitDy=0;endArrow=none;endFill=0;strokeColor=#000000;strokeWidth=3;" parent="1" source="4yiuB51oUjneCi9A5fvg-34" target="4yiuB51oUjneCi9A5fvg-34" edge="1">
          <mxGeometry relative="1" as="geometry" />
        </mxCell>
        <mxCell id="xlh3ww8DrCwgxQ4BuxXP-44" value="" style="group" parent="1" vertex="1" connectable="0">
          <mxGeometry x="118" y="481.25" width="120" height="140" as="geometry" />
        </mxCell>
        <mxCell id="xlh3ww8DrCwgxQ4BuxXP-45" value="20S&lt;br&gt;MODULE" style="rounded=0;whiteSpace=wrap;html=1;fillColor=#fff2cc;strokeColor=#d6b656;" parent="xlh3ww8DrCwgxQ4BuxXP-44" vertex="1">
          <mxGeometry width="120" height="140" as="geometry" />
        </mxCell>
        <mxCell id="xlh3ww8DrCwgxQ4BuxXP-46" value="MCU" style="rounded=0;whiteSpace=wrap;html=1;fillColor=#d5e8d4;strokeColor=#82b366;" parent="xlh3ww8DrCwgxQ4BuxXP-44" vertex="1">
          <mxGeometry x="10" y="105" width="100" height="30" as="geometry" />
        </mxCell>
        <mxCell id="xlh3ww8DrCwgxQ4BuxXP-47" value="" style="group" parent="1" vertex="1" connectable="0">
          <mxGeometry x="246" y="481.25" width="120" height="140" as="geometry" />
        </mxCell>
        <mxCell id="xlh3ww8DrCwgxQ4BuxXP-48" value="20S&lt;br&gt;MODULE" style="rounded=0;whiteSpace=wrap;html=1;fillColor=#fff2cc;strokeColor=#d6b656;" parent="xlh3ww8DrCwgxQ4BuxXP-47" vertex="1">
          <mxGeometry width="120" height="140" as="geometry" />
        </mxCell>
        <mxCell id="xlh3ww8DrCwgxQ4BuxXP-49" value="MCU" style="rounded=0;whiteSpace=wrap;html=1;fillColor=#d5e8d4;strokeColor=#82b366;" parent="xlh3ww8DrCwgxQ4BuxXP-47" vertex="1">
          <mxGeometry x="10" y="105" width="100" height="30" as="geometry" />
        </mxCell>
        <mxCell id="xlh3ww8DrCwgxQ4BuxXP-50" value="" style="group" parent="1" vertex="1" connectable="0">
          <mxGeometry x="532" y="481.25" width="120" height="140" as="geometry" />
        </mxCell>
        <mxCell id="xlh3ww8DrCwgxQ4BuxXP-51" value="20S&lt;br&gt;MODULE" style="rounded=0;whiteSpace=wrap;html=1;fillColor=#fff2cc;strokeColor=#d6b656;" parent="xlh3ww8DrCwgxQ4BuxXP-50" vertex="1">
          <mxGeometry width="120" height="140" as="geometry" />
        </mxCell>
        <mxCell id="xlh3ww8DrCwgxQ4BuxXP-52" value="MCU" style="rounded=0;whiteSpace=wrap;html=1;fillColor=#d5e8d4;strokeColor=#82b366;" parent="xlh3ww8DrCwgxQ4BuxXP-50" vertex="1">
          <mxGeometry x="10" y="105" width="100" height="30" as="geometry" />
        </mxCell>
        <mxCell id="xlh3ww8DrCwgxQ4BuxXP-53" value="" style="group" parent="1" vertex="1" connectable="0">
          <mxGeometry x="658" y="481.25" width="120" height="140" as="geometry" />
        </mxCell>
        <mxCell id="xlh3ww8DrCwgxQ4BuxXP-54" value="20S&lt;br&gt;MODULE" style="rounded=0;whiteSpace=wrap;html=1;fillColor=#fff2cc;strokeColor=#d6b656;" parent="xlh3ww8DrCwgxQ4BuxXP-53" vertex="1">
          <mxGeometry width="120" height="140" as="geometry" />
        </mxCell>
        <mxCell id="xlh3ww8DrCwgxQ4BuxXP-55" value="MCU" style="rounded=0;whiteSpace=wrap;html=1;fillColor=#d5e8d4;strokeColor=#82b366;" parent="xlh3ww8DrCwgxQ4BuxXP-53" vertex="1">
          <mxGeometry x="10" y="105" width="100" height="30" as="geometry" />
        </mxCell>
        <mxCell id="xlh3ww8DrCwgxQ4BuxXP-56" value="" style="shape=curlyBracket;whiteSpace=wrap;html=1;rounded=1;flipH=1;fillColor=#B3B3B3;rotation=90;" parent="1" vertex="1">
          <mxGeometry x="440.25" y="282" width="35" height="688.5" as="geometry" />
        </mxCell>
        <mxCell id="xlh3ww8DrCwgxQ4BuxXP-57" value="9 modules" style="text;html=1;strokeColor=none;fillColor=none;align=center;verticalAlign=middle;whiteSpace=wrap;rounded=0;fontStyle=1" parent="1" vertex="1">
          <mxGeometry x="415.25" y="643.25" width="85" height="20" as="geometry" />
        </mxCell>
        <mxCell id="xlh3ww8DrCwgxQ4BuxXP-74" style="edgeStyle=orthogonalEdgeStyle;shape=link;rounded=0;orthogonalLoop=1;jettySize=auto;html=1;exitX=0.75;exitY=0;exitDx=0;exitDy=0;endArrow=none;endFill=0;strokeWidth=3;fillColor=#ffff88;strokeColor=#FFB570;" parent="1" source="xlh3ww8DrCwgxQ4BuxXP-58" edge="1" target="gos_T6UXr2c_d4h_DJEx-1">
          <mxGeometry relative="1" as="geometry">
            <mxPoint x="1010" y="584" as="targetPoint" />
          </mxGeometry>
        </mxCell>
        <mxCell id="xlh3ww8DrCwgxQ4BuxXP-75" value="Vehicle CAN" style="edgeLabel;html=1;align=center;verticalAlign=middle;resizable=0;points=[];" parent="xlh3ww8DrCwgxQ4BuxXP-74" vertex="1" connectable="0">
          <mxGeometry x="0.1996" y="1" relative="1" as="geometry">
            <mxPoint y="1" as="offset" />
          </mxGeometry>
        </mxCell>
        <mxCell id="xlh3ww8DrCwgxQ4BuxXP-58" value="BCU" style="rounded=0;whiteSpace=wrap;html=1;fillColor=#f8cecc;strokeColor=#b85450;container=1;direction=south;" parent="1" vertex="1">
          <mxGeometry x="808" y="509.25" width="30" height="100" as="geometry">
            <mxRectangle x="10" y="105" width="54" height="18" as="alternateBounds" />
          </mxGeometry>
        </mxCell>
        <mxCell id="xlh3ww8DrCwgxQ4BuxXP-59" style="edgeStyle=orthogonalEdgeStyle;rounded=0;orthogonalLoop=1;jettySize=auto;html=1;exitX=1;exitY=0.5;exitDx=0;exitDy=0;entryX=0.02;entryY=0.062;entryDx=0;entryDy=0;entryPerimeter=0;dashed=1;endArrow=none;endFill=0;" parent="1" source="xlh3ww8DrCwgxQ4BuxXP-61" target="xlh3ww8DrCwgxQ4BuxXP-45" edge="1">
          <mxGeometry relative="1" as="geometry">
            <Array as="points">
              <mxPoint x="102" y="490.25" />
            </Array>
          </mxGeometry>
        </mxCell>
        <mxCell id="xlh3ww8DrCwgxQ4BuxXP-60" style="edgeStyle=orthogonalEdgeStyle;rounded=0;orthogonalLoop=1;jettySize=auto;html=1;exitX=0;exitY=0.5;exitDx=0;exitDy=0;entryX=-0.008;entryY=0.892;entryDx=0;entryDy=0;dashed=1;endArrow=none;endFill=0;strokeColor=#000000;entryPerimeter=0;" parent="1" source="xlh3ww8DrCwgxQ4BuxXP-61" target="xlh3ww8DrCwgxQ4BuxXP-45" edge="1">
          <mxGeometry relative="1" as="geometry">
            <Array as="points">
              <mxPoint x="102" y="606.25" />
            </Array>
          </mxGeometry>
        </mxCell>
        <mxCell id="xlh3ww8DrCwgxQ4BuxXP-61" value="~72 VDC" style="text;html=1;strokeColor=none;fillColor=none;align=center;verticalAlign=middle;whiteSpace=wrap;rounded=0;rotation=-90;" parent="1" vertex="1">
          <mxGeometry x="67" y="533.75" width="70" height="20" as="geometry" />
        </mxCell>
        <mxCell id="xlh3ww8DrCwgxQ4BuxXP-62" style="edgeStyle=orthogonalEdgeStyle;rounded=0;orthogonalLoop=1;jettySize=auto;html=1;exitX=0;exitY=0.5;exitDx=0;exitDy=0;dashed=1;endArrow=none;endFill=0;strokeColor=#000000;" parent="1" source="xlh3ww8DrCwgxQ4BuxXP-64" edge="1">
          <mxGeometry relative="1" as="geometry">
            <mxPoint x="70" y="453" as="targetPoint" />
            <Array as="points">
              <mxPoint x="70" y="429" />
              <mxPoint x="70" y="453" />
            </Array>
          </mxGeometry>
        </mxCell>
        <mxCell id="xlh3ww8DrCwgxQ4BuxXP-63" style="edgeStyle=orthogonalEdgeStyle;rounded=0;orthogonalLoop=1;jettySize=auto;html=1;exitX=1;exitY=0.5;exitDx=0;exitDy=0;entryX=1;entryY=0;entryDx=0;entryDy=0;dashed=1;endArrow=none;endFill=0;strokeColor=#000000;" parent="1" source="xlh3ww8DrCwgxQ4BuxXP-64" target="xlh3ww8DrCwgxQ4BuxXP-43" edge="1">
          <mxGeometry relative="1" as="geometry">
            <mxPoint x="812" y="484.2499999999999" as="targetPoint" />
            <Array as="points">
              <mxPoint x="845" y="429" />
            </Array>
          </mxGeometry>
        </mxCell>
        <mxCell id="xlh3ww8DrCwgxQ4BuxXP-64" value="~648 VDC" style="text;html=1;strokeColor=none;fillColor=none;align=center;verticalAlign=middle;whiteSpace=wrap;rounded=0;rotation=0;" parent="1" vertex="1">
          <mxGeometry x="431" y="419.25" width="70" height="20" as="geometry" />
        </mxCell>
        <mxCell id="xlh3ww8DrCwgxQ4BuxXP-65" value="&lt;b&gt;&lt;br&gt;........................................&lt;/b&gt;" style="text;html=1;strokeColor=none;fillColor=none;align=center;verticalAlign=middle;whiteSpace=wrap;rounded=0;" parent="1" vertex="1">
          <mxGeometry x="378.25" y="531.25" width="159" height="20" as="geometry" />
        </mxCell>
        <mxCell id="xlh3ww8DrCwgxQ4BuxXP-66" value="180S Pack" style="text;html=1;strokeColor=none;fillColor=none;align=center;verticalAlign=middle;whiteSpace=wrap;rounded=0;" parent="1" vertex="1">
          <mxGeometry x="418" y="399.25" width="105" height="17" as="geometry" />
        </mxCell>
        <mxCell id="xlh3ww8DrCwgxQ4BuxXP-67" style="edgeStyle=orthogonalEdgeStyle;rounded=0;orthogonalLoop=1;jettySize=auto;html=1;exitX=1;exitY=0.5;exitDx=0;exitDy=0;entryX=0;entryY=0.5;entryDx=0;entryDy=0;endArrow=none;endFill=0;strokeColor=#82b366;shape=link;fillColor=#d5e8d4;strokeWidth=1;" parent="1" source="xlh3ww8DrCwgxQ4BuxXP-46" target="xlh3ww8DrCwgxQ4BuxXP-49" edge="1">
          <mxGeometry relative="1" as="geometry" />
        </mxCell>
        <mxCell id="xlh3ww8DrCwgxQ4BuxXP-68" style="edgeStyle=orthogonalEdgeStyle;shape=link;rounded=0;orthogonalLoop=1;jettySize=auto;html=1;exitX=1;exitY=0.5;exitDx=0;exitDy=0;entryX=0;entryY=0.5;entryDx=0;entryDy=0;endArrow=none;endFill=0;strokeColor=#82b366;strokeWidth=1;fillColor=#d5e8d4;" parent="1" source="xlh3ww8DrCwgxQ4BuxXP-49" target="xlh3ww8DrCwgxQ4BuxXP-52" edge="1">
          <mxGeometry relative="1" as="geometry" />
        </mxCell>
        <mxCell id="xlh3ww8DrCwgxQ4BuxXP-69" style="edgeStyle=orthogonalEdgeStyle;shape=link;rounded=0;orthogonalLoop=1;jettySize=auto;html=1;exitX=1;exitY=0.5;exitDx=0;exitDy=0;entryX=0;entryY=0.5;entryDx=0;entryDy=0;endArrow=none;endFill=0;strokeColor=#82b366;strokeWidth=1;fillColor=#d5e8d4;" parent="1" source="xlh3ww8DrCwgxQ4BuxXP-52" target="xlh3ww8DrCwgxQ4BuxXP-55" edge="1">
          <mxGeometry relative="1" as="geometry" />
        </mxCell>
        <mxCell id="xlh3ww8DrCwgxQ4BuxXP-70" style="edgeStyle=orthogonalEdgeStyle;shape=link;rounded=0;orthogonalLoop=1;jettySize=auto;html=1;exitX=1;exitY=0.5;exitDx=0;exitDy=0;entryX=0.5;entryY=1;entryDx=0;entryDy=0;endArrow=none;endFill=0;strokeColor=#82b366;strokeWidth=1;fillColor=#d5e8d4;" parent="1" source="xlh3ww8DrCwgxQ4BuxXP-55" target="xlh3ww8DrCwgxQ4BuxXP-58" edge="1">
          <mxGeometry relative="1" as="geometry" />
        </mxCell>
        <mxCell id="xlh3ww8DrCwgxQ4BuxXP-71" style="edgeStyle=orthogonalEdgeStyle;shape=link;rounded=0;orthogonalLoop=1;jettySize=auto;html=1;exitX=0.5;exitY=1;exitDx=0;exitDy=0;endArrow=none;endFill=0;strokeColor=#000000;strokeWidth=3;" parent="1" source="xlh3ww8DrCwgxQ4BuxXP-65" target="xlh3ww8DrCwgxQ4BuxXP-65" edge="1">
          <mxGeometry relative="1" as="geometry" />
        </mxCell>
        <mxCell id="xlh3ww8DrCwgxQ4BuxXP-73" value="Battery CAN" style="edgeStyle=orthogonalEdgeStyle;shape=link;rounded=0;orthogonalLoop=1;jettySize=auto;html=1;exitX=0.5;exitY=0;exitDx=0;exitDy=0;entryX=0.25;entryY=0;entryDx=0;entryDy=0;endArrow=none;endFill=0;strokeWidth=1;fillColor=#ffcc99;strokeColor=#FF0000;" parent="1" source="4yiuB51oUjneCi9A5fvg-21" target="xlh3ww8DrCwgxQ4BuxXP-58" edge="1">
          <mxGeometry relative="1" as="geometry">
            <Array as="points">
              <mxPoint x="876" y="203" />
              <mxPoint x="876" y="535" />
            </Array>
          </mxGeometry>
        </mxCell>
        <mxCell id="gos_T6UXr2c_d4h_DJEx-1" value="VCU" style="rounded=0;whiteSpace=wrap;html=1;fillColor=#f8cecc;strokeColor=#b85450;container=1;direction=south;" vertex="1" parent="1">
          <mxGeometry x="967" y="481.25" width="223" height="201.25" as="geometry">
            <mxRectangle x="10" y="105" width="54" height="18" as="alternateBounds" />
          </mxGeometry>
        </mxCell>
        <mxCell id="gos_T6UXr2c_d4h_DJEx-2" value="" style="image;html=1;image=img/lib/atlassian/Statuspage_Logo.svg;" vertex="1" parent="1">
          <mxGeometry x="747" y="743" width="75" height="52" as="geometry" />
        </mxCell>
        <mxCell id="gos_T6UXr2c_d4h_DJEx-3" style="edgeStyle=orthogonalEdgeStyle;shape=link;rounded=0;orthogonalLoop=1;jettySize=auto;html=1;exitX=1;exitY=0.5;exitDx=0;exitDy=0;endArrow=none;endFill=0;strokeWidth=3;fillColor=#ffff88;strokeColor=#FFB570;entryX=0.75;entryY=0;entryDx=0;entryDy=0;" edge="1" parent="1" source="gos_T6UXr2c_d4h_DJEx-2" target="xlh3ww8DrCwgxQ4BuxXP-58">
          <mxGeometry relative="1" as="geometry">
            <mxPoint x="977" y="592" as="targetPoint" />
            <mxPoint x="848" y="594" as="sourcePoint" />
          </mxGeometry>
        </mxCell>
        <mxCell id="gos_T6UXr2c_d4h_DJEx-4" value="Vehicle CAN" style="edgeLabel;html=1;align=center;verticalAlign=middle;resizable=0;points=[];" vertex="1" connectable="0" parent="gos_T6UXr2c_d4h_DJEx-3">
          <mxGeometry x="0.1996" y="1" relative="1" as="geometry">
            <mxPoint y="1" as="offset" />
          </mxGeometry>
        </mxCell>
      </root>
    </mxGraphModel>
  </diagram>
  <diagram id="PKPfXyT7j3kX1BP0BpH2" name="Pack_">
    <mxGraphModel dx="2077" dy="780" grid="1" gridSize="10" guides="1" tooltips="1" connect="1" arrows="1" fold="1" page="1" pageScale="1" pageWidth="850" pageHeight="1100" math="0" shadow="0">
      <root>
        <mxCell id="p0wn3c0YQTMKcdl8cK-g-0" />
        <mxCell id="p0wn3c0YQTMKcdl8cK-g-1" parent="p0wn3c0YQTMKcdl8cK-g-0" />
        <mxCell id="P3gHN3zXVOR5ywR60ZjZ-0" value="" style="rounded=0;whiteSpace=wrap;html=1;fillColor=#eeeeee;strokeColor=#36393d;" vertex="1" parent="p0wn3c0YQTMKcdl8cK-g-1">
          <mxGeometry x="80" y="96" width="726" height="214" as="geometry" />
        </mxCell>
        <mxCell id="P3gHN3zXVOR5ywR60ZjZ-1" value="" style="group" vertex="1" connectable="0" parent="p0wn3c0YQTMKcdl8cK-g-1">
          <mxGeometry x="112" y="125" width="120" height="140" as="geometry" />
        </mxCell>
        <mxCell id="P3gHN3zXVOR5ywR60ZjZ-2" value="20S&lt;br&gt;MODULE" style="rounded=0;whiteSpace=wrap;html=1;fillColor=#fff2cc;strokeColor=#d6b656;" vertex="1" parent="P3gHN3zXVOR5ywR60ZjZ-1">
          <mxGeometry width="120" height="140" as="geometry" />
        </mxCell>
        <mxCell id="P3gHN3zXVOR5ywR60ZjZ-3" value="MCU" style="rounded=0;whiteSpace=wrap;html=1;fillColor=#d5e8d4;strokeColor=#82b366;" vertex="1" parent="P3gHN3zXVOR5ywR60ZjZ-1">
          <mxGeometry x="10" y="105" width="100" height="30" as="geometry" />
        </mxCell>
        <mxCell id="P3gHN3zXVOR5ywR60ZjZ-4" value="" style="group" vertex="1" connectable="0" parent="p0wn3c0YQTMKcdl8cK-g-1">
          <mxGeometry x="240" y="125" width="120" height="140" as="geometry" />
        </mxCell>
        <mxCell id="P3gHN3zXVOR5ywR60ZjZ-5" value="20S&lt;br&gt;MODULE" style="rounded=0;whiteSpace=wrap;html=1;fillColor=#fff2cc;strokeColor=#d6b656;" vertex="1" parent="P3gHN3zXVOR5ywR60ZjZ-4">
          <mxGeometry width="120" height="140" as="geometry" />
        </mxCell>
        <mxCell id="P3gHN3zXVOR5ywR60ZjZ-6" value="MCU" style="rounded=0;whiteSpace=wrap;html=1;fillColor=#d5e8d4;strokeColor=#82b366;" vertex="1" parent="P3gHN3zXVOR5ywR60ZjZ-4">
          <mxGeometry x="10" y="105" width="100" height="30" as="geometry" />
        </mxCell>
        <mxCell id="P3gHN3zXVOR5ywR60ZjZ-7" value="" style="group" vertex="1" connectable="0" parent="p0wn3c0YQTMKcdl8cK-g-1">
          <mxGeometry x="547" y="125" width="120" height="140" as="geometry" />
        </mxCell>
        <mxCell id="P3gHN3zXVOR5ywR60ZjZ-8" value="20S&lt;br&gt;MODULE" style="rounded=0;whiteSpace=wrap;html=1;fillColor=#fff2cc;strokeColor=#d6b656;" vertex="1" parent="P3gHN3zXVOR5ywR60ZjZ-7">
          <mxGeometry width="120" height="140" as="geometry" />
        </mxCell>
        <mxCell id="P3gHN3zXVOR5ywR60ZjZ-9" value="MCU" style="rounded=0;whiteSpace=wrap;html=1;fillColor=#d5e8d4;strokeColor=#82b366;" vertex="1" parent="P3gHN3zXVOR5ywR60ZjZ-7">
          <mxGeometry x="10" y="105" width="100" height="30" as="geometry" />
        </mxCell>
        <mxCell id="P3gHN3zXVOR5ywR60ZjZ-10" value="" style="group" vertex="1" connectable="0" parent="p0wn3c0YQTMKcdl8cK-g-1">
          <mxGeometry x="673" y="125" width="120" height="140" as="geometry" />
        </mxCell>
        <mxCell id="P3gHN3zXVOR5ywR60ZjZ-11" value="20S&lt;br&gt;MODULE" style="rounded=0;whiteSpace=wrap;html=1;fillColor=#fff2cc;strokeColor=#d6b656;" vertex="1" parent="P3gHN3zXVOR5ywR60ZjZ-10">
          <mxGeometry width="120" height="140" as="geometry" />
        </mxCell>
        <mxCell id="P3gHN3zXVOR5ywR60ZjZ-12" value="MCU" style="rounded=0;whiteSpace=wrap;html=1;fillColor=#d5e8d4;strokeColor=#82b366;" vertex="1" parent="P3gHN3zXVOR5ywR60ZjZ-10">
          <mxGeometry x="10" y="105" width="100" height="30" as="geometry" />
        </mxCell>
        <mxCell id="P3gHN3zXVOR5ywR60ZjZ-13" value="" style="shape=curlyBracket;whiteSpace=wrap;html=1;rounded=1;flipH=1;fillColor=#B3B3B3;rotation=90;" vertex="1" parent="p0wn3c0YQTMKcdl8cK-g-1">
          <mxGeometry x="434.25" y="-74.25" width="35" height="688.5" as="geometry" />
        </mxCell>
        <mxCell id="P3gHN3zXVOR5ywR60ZjZ-14" value="9 modules" style="text;html=1;strokeColor=none;fillColor=none;align=center;verticalAlign=middle;whiteSpace=wrap;rounded=0;fontStyle=1" vertex="1" parent="p0wn3c0YQTMKcdl8cK-g-1">
          <mxGeometry x="409.25" y="287" width="85" height="20" as="geometry" />
        </mxCell>
        <mxCell id="P3gHN3zXVOR5ywR60ZjZ-15" value="BCU" style="rounded=0;whiteSpace=wrap;html=1;fillColor=#f8cecc;strokeColor=#b85450;container=1;" vertex="1" parent="p0wn3c0YQTMKcdl8cK-g-1">
          <mxGeometry x="683" y="277" width="100" height="30" as="geometry">
            <mxRectangle x="10" y="105" width="54" height="18" as="alternateBounds" />
          </mxGeometry>
        </mxCell>
        <mxCell id="P3gHN3zXVOR5ywR60ZjZ-16" style="edgeStyle=orthogonalEdgeStyle;rounded=0;orthogonalLoop=1;jettySize=auto;html=1;exitX=1;exitY=0.5;exitDx=0;exitDy=0;entryX=0.02;entryY=0.062;entryDx=0;entryDy=0;entryPerimeter=0;dashed=1;endArrow=none;endFill=0;" edge="1" parent="p0wn3c0YQTMKcdl8cK-g-1" source="P3gHN3zXVOR5ywR60ZjZ-18" target="P3gHN3zXVOR5ywR60ZjZ-2">
          <mxGeometry relative="1" as="geometry">
            <Array as="points">
              <mxPoint x="96" y="134" />
            </Array>
          </mxGeometry>
        </mxCell>
        <mxCell id="P3gHN3zXVOR5ywR60ZjZ-17" style="edgeStyle=orthogonalEdgeStyle;rounded=0;orthogonalLoop=1;jettySize=auto;html=1;exitX=0;exitY=0.5;exitDx=0;exitDy=0;entryX=-0.008;entryY=0.892;entryDx=0;entryDy=0;dashed=1;endArrow=none;endFill=0;strokeColor=#000000;entryPerimeter=0;" edge="1" parent="p0wn3c0YQTMKcdl8cK-g-1" source="P3gHN3zXVOR5ywR60ZjZ-18" target="P3gHN3zXVOR5ywR60ZjZ-2">
          <mxGeometry relative="1" as="geometry">
            <Array as="points">
              <mxPoint x="96" y="250" />
            </Array>
          </mxGeometry>
        </mxCell>
        <mxCell id="P3gHN3zXVOR5ywR60ZjZ-18" value="~72 VDC" style="text;html=1;strokeColor=none;fillColor=none;align=center;verticalAlign=middle;whiteSpace=wrap;rounded=0;rotation=-90;" vertex="1" parent="p0wn3c0YQTMKcdl8cK-g-1">
          <mxGeometry x="61" y="177.5" width="70" height="20" as="geometry" />
        </mxCell>
        <mxCell id="P3gHN3zXVOR5ywR60ZjZ-19" style="edgeStyle=orthogonalEdgeStyle;rounded=0;orthogonalLoop=1;jettySize=auto;html=1;exitX=0;exitY=0.5;exitDx=0;exitDy=0;entryX=0;entryY=0;entryDx=0;entryDy=0;dashed=1;endArrow=none;endFill=0;strokeColor=#000000;" edge="1" parent="p0wn3c0YQTMKcdl8cK-g-1" source="P3gHN3zXVOR5ywR60ZjZ-21">
          <mxGeometry relative="1" as="geometry">
            <mxPoint x="80" y="127.99999999999989" as="targetPoint" />
          </mxGeometry>
        </mxCell>
        <mxCell id="P3gHN3zXVOR5ywR60ZjZ-20" style="edgeStyle=orthogonalEdgeStyle;rounded=0;orthogonalLoop=1;jettySize=auto;html=1;exitX=1;exitY=0.5;exitDx=0;exitDy=0;entryX=1;entryY=0;entryDx=0;entryDy=0;dashed=1;endArrow=none;endFill=0;strokeColor=#000000;" edge="1" parent="p0wn3c0YQTMKcdl8cK-g-1" source="P3gHN3zXVOR5ywR60ZjZ-21">
          <mxGeometry relative="1" as="geometry">
            <mxPoint x="806" y="127.99999999999989" as="targetPoint" />
            <Array as="points">
              <mxPoint x="806" y="73" />
            </Array>
          </mxGeometry>
        </mxCell>
        <mxCell id="P3gHN3zXVOR5ywR60ZjZ-21" value="~648 VDC" style="text;html=1;strokeColor=none;fillColor=none;align=center;verticalAlign=middle;whiteSpace=wrap;rounded=0;rotation=0;" vertex="1" parent="p0wn3c0YQTMKcdl8cK-g-1">
          <mxGeometry x="425" y="63" width="70" height="20" as="geometry" />
        </mxCell>
        <mxCell id="P3gHN3zXVOR5ywR60ZjZ-22" value="&lt;b&gt;&lt;br&gt;......................................................&lt;/b&gt;" style="text;html=1;strokeColor=none;fillColor=none;align=center;verticalAlign=middle;whiteSpace=wrap;rounded=0;" vertex="1" parent="p0wn3c0YQTMKcdl8cK-g-1">
          <mxGeometry x="360" y="177.5" width="186" height="20" as="geometry" />
        </mxCell>
        <mxCell id="P3gHN3zXVOR5ywR60ZjZ-23" value="180S Pack" style="text;html=1;strokeColor=none;fillColor=none;align=center;verticalAlign=middle;whiteSpace=wrap;rounded=0;" vertex="1" parent="p0wn3c0YQTMKcdl8cK-g-1">
          <mxGeometry x="412" y="43" width="105" height="20" as="geometry" />
        </mxCell>
      </root>
    </mxGraphModel>
  </diagram>
  <diagram id="tX23S-LfhDXjbkiVfWaj" name="Option_2">
    <mxGraphModel dx="2492" dy="822" grid="1" gridSize="10" guides="1" tooltips="1" connect="1" arrows="1" fold="1" page="1" pageScale="1" pageWidth="850" pageHeight="1100" math="0" shadow="0">
      <root>
        <mxCell id="H2qDwa9pVDV-4ezduEQk-0" />
        <mxCell id="H2qDwa9pVDV-4ezduEQk-1" parent="H2qDwa9pVDV-4ezduEQk-0" />
        <mxCell id="H2qDwa9pVDV-4ezduEQk-2" value="" style="rounded=0;whiteSpace=wrap;html=1;fillColor=#eeeeee;strokeColor=#36393d;" vertex="1" parent="H2qDwa9pVDV-4ezduEQk-1">
          <mxGeometry x="69" y="96" width="775" height="214" as="geometry" />
        </mxCell>
        <mxCell id="H2qDwa9pVDV-4ezduEQk-3" value="" style="group" vertex="1" connectable="0" parent="H2qDwa9pVDV-4ezduEQk-1">
          <mxGeometry x="112" y="125" width="120" height="140" as="geometry" />
        </mxCell>
        <mxCell id="H2qDwa9pVDV-4ezduEQk-4" value="20S&lt;br&gt;MODULE" style="rounded=0;whiteSpace=wrap;html=1;fillColor=#fff2cc;strokeColor=#d6b656;" vertex="1" parent="H2qDwa9pVDV-4ezduEQk-3">
          <mxGeometry width="120" height="140" as="geometry" />
        </mxCell>
        <mxCell id="H2qDwa9pVDV-4ezduEQk-5" value="MCU" style="rounded=0;whiteSpace=wrap;html=1;fillColor=#d5e8d4;strokeColor=#82b366;" vertex="1" parent="H2qDwa9pVDV-4ezduEQk-3">
          <mxGeometry x="10" y="105" width="100" height="30" as="geometry" />
        </mxCell>
        <mxCell id="H2qDwa9pVDV-4ezduEQk-6" value="" style="group" vertex="1" connectable="0" parent="H2qDwa9pVDV-4ezduEQk-1">
          <mxGeometry x="240" y="125" width="120" height="140" as="geometry" />
        </mxCell>
        <mxCell id="H2qDwa9pVDV-4ezduEQk-7" value="20S&lt;br&gt;MODULE" style="rounded=0;whiteSpace=wrap;html=1;fillColor=#fff2cc;strokeColor=#d6b656;" vertex="1" parent="H2qDwa9pVDV-4ezduEQk-6">
          <mxGeometry width="120" height="140" as="geometry" />
        </mxCell>
        <mxCell id="H2qDwa9pVDV-4ezduEQk-8" value="MCU" style="rounded=0;whiteSpace=wrap;html=1;fillColor=#d5e8d4;strokeColor=#82b366;" vertex="1" parent="H2qDwa9pVDV-4ezduEQk-6">
          <mxGeometry x="10" y="105" width="100" height="30" as="geometry" />
        </mxCell>
        <mxCell id="H2qDwa9pVDV-4ezduEQk-9" value="" style="group" vertex="1" connectable="0" parent="H2qDwa9pVDV-4ezduEQk-1">
          <mxGeometry x="526" y="125" width="120" height="140" as="geometry" />
        </mxCell>
        <mxCell id="H2qDwa9pVDV-4ezduEQk-10" value="20S&lt;br&gt;MODULE" style="rounded=0;whiteSpace=wrap;html=1;fillColor=#fff2cc;strokeColor=#d6b656;" vertex="1" parent="H2qDwa9pVDV-4ezduEQk-9">
          <mxGeometry width="120" height="140" as="geometry" />
        </mxCell>
        <mxCell id="H2qDwa9pVDV-4ezduEQk-11" value="MCU" style="rounded=0;whiteSpace=wrap;html=1;fillColor=#d5e8d4;strokeColor=#82b366;" vertex="1" parent="H2qDwa9pVDV-4ezduEQk-9">
          <mxGeometry x="10" y="105" width="100" height="30" as="geometry" />
        </mxCell>
        <mxCell id="H2qDwa9pVDV-4ezduEQk-12" value="" style="group" vertex="1" connectable="0" parent="H2qDwa9pVDV-4ezduEQk-1">
          <mxGeometry x="652" y="125" width="120" height="140" as="geometry" />
        </mxCell>
        <mxCell id="H2qDwa9pVDV-4ezduEQk-13" value="20S&lt;br&gt;MODULE" style="rounded=0;whiteSpace=wrap;html=1;fillColor=#fff2cc;strokeColor=#d6b656;" vertex="1" parent="H2qDwa9pVDV-4ezduEQk-12">
          <mxGeometry width="120" height="140" as="geometry" />
        </mxCell>
        <mxCell id="H2qDwa9pVDV-4ezduEQk-14" value="MCU" style="rounded=0;whiteSpace=wrap;html=1;fillColor=#d5e8d4;strokeColor=#82b366;" vertex="1" parent="H2qDwa9pVDV-4ezduEQk-12">
          <mxGeometry x="10" y="105" width="100" height="30" as="geometry" />
        </mxCell>
        <mxCell id="H2qDwa9pVDV-4ezduEQk-15" value="" style="shape=curlyBracket;whiteSpace=wrap;html=1;rounded=1;flipH=1;fillColor=#B3B3B3;rotation=90;" vertex="1" parent="H2qDwa9pVDV-4ezduEQk-1">
          <mxGeometry x="434.25" y="-74.25" width="35" height="688.5" as="geometry" />
        </mxCell>
        <mxCell id="H2qDwa9pVDV-4ezduEQk-16" value="9 modules" style="text;html=1;strokeColor=none;fillColor=none;align=center;verticalAlign=middle;whiteSpace=wrap;rounded=0;fontStyle=1" vertex="1" parent="H2qDwa9pVDV-4ezduEQk-1">
          <mxGeometry x="409.25" y="287" width="85" height="20" as="geometry" />
        </mxCell>
        <mxCell id="H2qDwa9pVDV-4ezduEQk-17" value="BCU" style="rounded=0;whiteSpace=wrap;html=1;fillColor=#f8cecc;strokeColor=#b85450;container=1;direction=south;" vertex="1" parent="H2qDwa9pVDV-4ezduEQk-1">
          <mxGeometry x="808" y="153" width="30" height="100" as="geometry">
            <mxRectangle x="10" y="105" width="54" height="18" as="alternateBounds" />
          </mxGeometry>
        </mxCell>
        <mxCell id="H2qDwa9pVDV-4ezduEQk-18" style="edgeStyle=orthogonalEdgeStyle;rounded=0;orthogonalLoop=1;jettySize=auto;html=1;exitX=1;exitY=0.5;exitDx=0;exitDy=0;entryX=0.02;entryY=0.062;entryDx=0;entryDy=0;entryPerimeter=0;dashed=1;endArrow=none;endFill=0;" edge="1" parent="H2qDwa9pVDV-4ezduEQk-1" source="H2qDwa9pVDV-4ezduEQk-20" target="H2qDwa9pVDV-4ezduEQk-4">
          <mxGeometry relative="1" as="geometry">
            <Array as="points">
              <mxPoint x="96" y="134" />
            </Array>
          </mxGeometry>
        </mxCell>
        <mxCell id="H2qDwa9pVDV-4ezduEQk-19" style="edgeStyle=orthogonalEdgeStyle;rounded=0;orthogonalLoop=1;jettySize=auto;html=1;exitX=0;exitY=0.5;exitDx=0;exitDy=0;entryX=-0.008;entryY=0.892;entryDx=0;entryDy=0;dashed=1;endArrow=none;endFill=0;strokeColor=#000000;entryPerimeter=0;" edge="1" parent="H2qDwa9pVDV-4ezduEQk-1" source="H2qDwa9pVDV-4ezduEQk-20" target="H2qDwa9pVDV-4ezduEQk-4">
          <mxGeometry relative="1" as="geometry">
            <Array as="points">
              <mxPoint x="96" y="250" />
            </Array>
          </mxGeometry>
        </mxCell>
        <mxCell id="H2qDwa9pVDV-4ezduEQk-20" value="~72 VDC" style="text;html=1;strokeColor=none;fillColor=none;align=center;verticalAlign=middle;whiteSpace=wrap;rounded=0;rotation=-90;" vertex="1" parent="H2qDwa9pVDV-4ezduEQk-1">
          <mxGeometry x="61" y="177.5" width="70" height="20" as="geometry" />
        </mxCell>
        <mxCell id="H2qDwa9pVDV-4ezduEQk-21" style="edgeStyle=orthogonalEdgeStyle;rounded=0;orthogonalLoop=1;jettySize=auto;html=1;exitX=0;exitY=0.5;exitDx=0;exitDy=0;dashed=1;endArrow=none;endFill=0;strokeColor=#000000;" edge="1" parent="H2qDwa9pVDV-4ezduEQk-1" source="H2qDwa9pVDV-4ezduEQk-23">
          <mxGeometry relative="1" as="geometry">
            <mxPoint x="70" y="97" as="targetPoint" />
          </mxGeometry>
        </mxCell>
        <mxCell id="H2qDwa9pVDV-4ezduEQk-22" style="edgeStyle=orthogonalEdgeStyle;rounded=0;orthogonalLoop=1;jettySize=auto;html=1;exitX=1;exitY=0.5;exitDx=0;exitDy=0;entryX=1;entryY=0;entryDx=0;entryDy=0;dashed=1;endArrow=none;endFill=0;strokeColor=#000000;" edge="1" parent="H2qDwa9pVDV-4ezduEQk-1" source="H2qDwa9pVDV-4ezduEQk-23" target="H2qDwa9pVDV-4ezduEQk-2">
          <mxGeometry relative="1" as="geometry">
            <mxPoint x="806" y="127.99999999999989" as="targetPoint" />
            <Array as="points">
              <mxPoint x="844" y="73" />
            </Array>
          </mxGeometry>
        </mxCell>
        <mxCell id="H2qDwa9pVDV-4ezduEQk-23" value="~648 VDC" style="text;html=1;strokeColor=none;fillColor=none;align=center;verticalAlign=middle;whiteSpace=wrap;rounded=0;rotation=0;" vertex="1" parent="H2qDwa9pVDV-4ezduEQk-1">
          <mxGeometry x="425" y="63" width="70" height="20" as="geometry" />
        </mxCell>
        <mxCell id="H2qDwa9pVDV-4ezduEQk-24" value="&lt;b&gt;&lt;br&gt;........................................&lt;/b&gt;" style="text;html=1;strokeColor=none;fillColor=none;align=center;verticalAlign=middle;whiteSpace=wrap;rounded=0;" vertex="1" parent="H2qDwa9pVDV-4ezduEQk-1">
          <mxGeometry x="372.25" y="175" width="159" height="20" as="geometry" />
        </mxCell>
        <mxCell id="H2qDwa9pVDV-4ezduEQk-25" value="180S Pack" style="text;html=1;strokeColor=none;fillColor=none;align=center;verticalAlign=middle;whiteSpace=wrap;rounded=0;" vertex="1" parent="H2qDwa9pVDV-4ezduEQk-1">
          <mxGeometry x="412" y="43" width="105" height="17" as="geometry" />
        </mxCell>
        <mxCell id="H2qDwa9pVDV-4ezduEQk-26" style="edgeStyle=orthogonalEdgeStyle;rounded=0;orthogonalLoop=1;jettySize=auto;html=1;exitX=1;exitY=0.5;exitDx=0;exitDy=0;entryX=0;entryY=0.5;entryDx=0;entryDy=0;endArrow=none;endFill=0;strokeColor=#82b366;shape=link;fillColor=#d5e8d4;strokeWidth=1;" edge="1" parent="H2qDwa9pVDV-4ezduEQk-1" source="H2qDwa9pVDV-4ezduEQk-5" target="H2qDwa9pVDV-4ezduEQk-8">
          <mxGeometry relative="1" as="geometry" />
        </mxCell>
        <mxCell id="H2qDwa9pVDV-4ezduEQk-27" style="edgeStyle=orthogonalEdgeStyle;shape=link;rounded=0;orthogonalLoop=1;jettySize=auto;html=1;exitX=1;exitY=0.5;exitDx=0;exitDy=0;entryX=0;entryY=0.5;entryDx=0;entryDy=0;endArrow=none;endFill=0;strokeColor=#82b366;strokeWidth=1;fillColor=#d5e8d4;" edge="1" parent="H2qDwa9pVDV-4ezduEQk-1" source="H2qDwa9pVDV-4ezduEQk-8" target="H2qDwa9pVDV-4ezduEQk-11">
          <mxGeometry relative="1" as="geometry" />
        </mxCell>
        <mxCell id="H2qDwa9pVDV-4ezduEQk-28" style="edgeStyle=orthogonalEdgeStyle;shape=link;rounded=0;orthogonalLoop=1;jettySize=auto;html=1;exitX=1;exitY=0.5;exitDx=0;exitDy=0;entryX=0;entryY=0.5;entryDx=0;entryDy=0;endArrow=none;endFill=0;strokeColor=#82b366;strokeWidth=1;fillColor=#d5e8d4;" edge="1" parent="H2qDwa9pVDV-4ezduEQk-1" source="H2qDwa9pVDV-4ezduEQk-11" target="H2qDwa9pVDV-4ezduEQk-14">
          <mxGeometry relative="1" as="geometry" />
        </mxCell>
        <mxCell id="H2qDwa9pVDV-4ezduEQk-29" value="" style="shape=curlyBracket;whiteSpace=wrap;html=1;rounded=1;flipH=1;fillColor=#B3B3B3;rotation=-180;" vertex="1" parent="H2qDwa9pVDV-4ezduEQk-1">
          <mxGeometry x="45" y="56" width="35" height="615" as="geometry" />
        </mxCell>
        <mxCell id="H2qDwa9pVDV-4ezduEQk-30" value="4 parallel packs" style="text;html=1;strokeColor=none;fillColor=none;align=center;verticalAlign=middle;whiteSpace=wrap;rounded=0;fontStyle=1;rotation=-90;" vertex="1" parent="H2qDwa9pVDV-4ezduEQk-1">
          <mxGeometry x="-56" y="403.5" width="177.5" height="20" as="geometry" />
        </mxCell>
        <mxCell id="H2qDwa9pVDV-4ezduEQk-31" style="edgeStyle=orthogonalEdgeStyle;shape=link;rounded=0;orthogonalLoop=1;jettySize=auto;html=1;exitX=1;exitY=0.5;exitDx=0;exitDy=0;entryX=0.5;entryY=1;entryDx=0;entryDy=0;endArrow=none;endFill=0;strokeColor=#82b366;strokeWidth=1;fillColor=#d5e8d4;" edge="1" parent="H2qDwa9pVDV-4ezduEQk-1" source="H2qDwa9pVDV-4ezduEQk-14" target="H2qDwa9pVDV-4ezduEQk-17">
          <mxGeometry relative="1" as="geometry" />
        </mxCell>
        <mxCell id="H2qDwa9pVDV-4ezduEQk-32" value="" style="rounded=0;whiteSpace=wrap;html=1;fillColor=#eeeeee;strokeColor=#36393d;" vertex="1" parent="H2qDwa9pVDV-4ezduEQk-1">
          <mxGeometry x="70" y="452.25" width="775" height="214" as="geometry" />
        </mxCell>
        <mxCell id="H2qDwa9pVDV-4ezduEQk-33" style="edgeStyle=orthogonalEdgeStyle;shape=link;rounded=0;orthogonalLoop=1;jettySize=auto;html=1;exitX=0.5;exitY=1;exitDx=0;exitDy=0;endArrow=none;endFill=0;strokeColor=#000000;strokeWidth=3;" edge="1" parent="H2qDwa9pVDV-4ezduEQk-1" source="H2qDwa9pVDV-4ezduEQk-24" target="H2qDwa9pVDV-4ezduEQk-24">
          <mxGeometry relative="1" as="geometry" />
        </mxCell>
        <mxCell id="H2qDwa9pVDV-4ezduEQk-34" value="" style="group" vertex="1" connectable="0" parent="H2qDwa9pVDV-4ezduEQk-1">
          <mxGeometry x="118" y="481.25" width="120" height="140" as="geometry" />
        </mxCell>
        <mxCell id="H2qDwa9pVDV-4ezduEQk-35" value="20S&lt;br&gt;MODULE" style="rounded=0;whiteSpace=wrap;html=1;fillColor=#fff2cc;strokeColor=#d6b656;" vertex="1" parent="H2qDwa9pVDV-4ezduEQk-34">
          <mxGeometry width="120" height="140" as="geometry" />
        </mxCell>
        <mxCell id="H2qDwa9pVDV-4ezduEQk-36" value="MCU" style="rounded=0;whiteSpace=wrap;html=1;fillColor=#d5e8d4;strokeColor=#82b366;" vertex="1" parent="H2qDwa9pVDV-4ezduEQk-34">
          <mxGeometry x="10" y="105" width="100" height="30" as="geometry" />
        </mxCell>
        <mxCell id="H2qDwa9pVDV-4ezduEQk-37" value="" style="group" vertex="1" connectable="0" parent="H2qDwa9pVDV-4ezduEQk-1">
          <mxGeometry x="246" y="481.25" width="120" height="140" as="geometry" />
        </mxCell>
        <mxCell id="H2qDwa9pVDV-4ezduEQk-38" value="20S&lt;br&gt;MODULE" style="rounded=0;whiteSpace=wrap;html=1;fillColor=#fff2cc;strokeColor=#d6b656;" vertex="1" parent="H2qDwa9pVDV-4ezduEQk-37">
          <mxGeometry width="120" height="140" as="geometry" />
        </mxCell>
        <mxCell id="H2qDwa9pVDV-4ezduEQk-39" value="MCU" style="rounded=0;whiteSpace=wrap;html=1;fillColor=#d5e8d4;strokeColor=#82b366;" vertex="1" parent="H2qDwa9pVDV-4ezduEQk-37">
          <mxGeometry x="10" y="105" width="100" height="30" as="geometry" />
        </mxCell>
        <mxCell id="H2qDwa9pVDV-4ezduEQk-40" value="" style="group" vertex="1" connectable="0" parent="H2qDwa9pVDV-4ezduEQk-1">
          <mxGeometry x="532" y="481.25" width="120" height="140" as="geometry" />
        </mxCell>
        <mxCell id="H2qDwa9pVDV-4ezduEQk-41" value="20S&lt;br&gt;MODULE" style="rounded=0;whiteSpace=wrap;html=1;fillColor=#fff2cc;strokeColor=#d6b656;" vertex="1" parent="H2qDwa9pVDV-4ezduEQk-40">
          <mxGeometry width="120" height="140" as="geometry" />
        </mxCell>
        <mxCell id="H2qDwa9pVDV-4ezduEQk-42" value="MCU" style="rounded=0;whiteSpace=wrap;html=1;fillColor=#d5e8d4;strokeColor=#82b366;" vertex="1" parent="H2qDwa9pVDV-4ezduEQk-40">
          <mxGeometry x="10" y="105" width="100" height="30" as="geometry" />
        </mxCell>
        <mxCell id="H2qDwa9pVDV-4ezduEQk-43" value="" style="group" vertex="1" connectable="0" parent="H2qDwa9pVDV-4ezduEQk-1">
          <mxGeometry x="658" y="481.25" width="120" height="140" as="geometry" />
        </mxCell>
        <mxCell id="H2qDwa9pVDV-4ezduEQk-44" value="20S&lt;br&gt;MODULE" style="rounded=0;whiteSpace=wrap;html=1;fillColor=#fff2cc;strokeColor=#d6b656;" vertex="1" parent="H2qDwa9pVDV-4ezduEQk-43">
          <mxGeometry width="120" height="140" as="geometry" />
        </mxCell>
        <mxCell id="H2qDwa9pVDV-4ezduEQk-45" value="MCU" style="rounded=0;whiteSpace=wrap;html=1;fillColor=#d5e8d4;strokeColor=#82b366;" vertex="1" parent="H2qDwa9pVDV-4ezduEQk-43">
          <mxGeometry x="10" y="105" width="100" height="30" as="geometry" />
        </mxCell>
        <mxCell id="H2qDwa9pVDV-4ezduEQk-46" value="" style="shape=curlyBracket;whiteSpace=wrap;html=1;rounded=1;flipH=1;fillColor=#B3B3B3;rotation=90;" vertex="1" parent="H2qDwa9pVDV-4ezduEQk-1">
          <mxGeometry x="440.25" y="282" width="35" height="688.5" as="geometry" />
        </mxCell>
        <mxCell id="H2qDwa9pVDV-4ezduEQk-47" value="9 modules" style="text;html=1;strokeColor=none;fillColor=none;align=center;verticalAlign=middle;whiteSpace=wrap;rounded=0;fontStyle=1" vertex="1" parent="H2qDwa9pVDV-4ezduEQk-1">
          <mxGeometry x="415.25" y="643.25" width="85" height="20" as="geometry" />
        </mxCell>
        <mxCell id="H2qDwa9pVDV-4ezduEQk-69" style="edgeStyle=orthogonalEdgeStyle;shape=link;rounded=0;orthogonalLoop=1;jettySize=auto;html=1;exitX=0.25;exitY=0;exitDx=0;exitDy=0;endArrow=none;endFill=0;strokeWidth=1;strokeColor=#FF0000;" edge="1" parent="H2qDwa9pVDV-4ezduEQk-1">
          <mxGeometry relative="1" as="geometry">
            <mxPoint x="844" y="534.25" as="sourcePoint" />
            <mxPoint x="840" y="735" as="targetPoint" />
            <Array as="points">
              <mxPoint x="876" y="534" />
              <mxPoint x="876" y="735" />
            </Array>
          </mxGeometry>
        </mxCell>
        <mxCell id="H2qDwa9pVDV-4ezduEQk-50" value="BCU" style="rounded=0;whiteSpace=wrap;html=1;fillColor=#f8cecc;strokeColor=#b85450;container=1;direction=south;" vertex="1" parent="H2qDwa9pVDV-4ezduEQk-1">
          <mxGeometry x="808" y="509.25" width="30" height="100" as="geometry">
            <mxRectangle x="10" y="105" width="54" height="18" as="alternateBounds" />
          </mxGeometry>
        </mxCell>
        <mxCell id="H2qDwa9pVDV-4ezduEQk-51" style="edgeStyle=orthogonalEdgeStyle;rounded=0;orthogonalLoop=1;jettySize=auto;html=1;exitX=1;exitY=0.5;exitDx=0;exitDy=0;entryX=0.02;entryY=0.062;entryDx=0;entryDy=0;entryPerimeter=0;dashed=1;endArrow=none;endFill=0;" edge="1" parent="H2qDwa9pVDV-4ezduEQk-1" source="H2qDwa9pVDV-4ezduEQk-53" target="H2qDwa9pVDV-4ezduEQk-35">
          <mxGeometry relative="1" as="geometry">
            <Array as="points">
              <mxPoint x="102" y="490.25" />
            </Array>
          </mxGeometry>
        </mxCell>
        <mxCell id="H2qDwa9pVDV-4ezduEQk-52" style="edgeStyle=orthogonalEdgeStyle;rounded=0;orthogonalLoop=1;jettySize=auto;html=1;exitX=0;exitY=0.5;exitDx=0;exitDy=0;entryX=-0.008;entryY=0.892;entryDx=0;entryDy=0;dashed=1;endArrow=none;endFill=0;strokeColor=#000000;entryPerimeter=0;" edge="1" parent="H2qDwa9pVDV-4ezduEQk-1" source="H2qDwa9pVDV-4ezduEQk-53" target="H2qDwa9pVDV-4ezduEQk-35">
          <mxGeometry relative="1" as="geometry">
            <Array as="points">
              <mxPoint x="102" y="606.25" />
            </Array>
          </mxGeometry>
        </mxCell>
        <mxCell id="H2qDwa9pVDV-4ezduEQk-53" value="~72 VDC" style="text;html=1;strokeColor=none;fillColor=none;align=center;verticalAlign=middle;whiteSpace=wrap;rounded=0;rotation=-90;" vertex="1" parent="H2qDwa9pVDV-4ezduEQk-1">
          <mxGeometry x="67" y="533.75" width="70" height="20" as="geometry" />
        </mxCell>
        <mxCell id="H2qDwa9pVDV-4ezduEQk-54" style="edgeStyle=orthogonalEdgeStyle;rounded=0;orthogonalLoop=1;jettySize=auto;html=1;exitX=0;exitY=0.5;exitDx=0;exitDy=0;dashed=1;endArrow=none;endFill=0;strokeColor=#000000;" edge="1" parent="H2qDwa9pVDV-4ezduEQk-1" source="H2qDwa9pVDV-4ezduEQk-56">
          <mxGeometry relative="1" as="geometry">
            <mxPoint x="70" y="453" as="targetPoint" />
            <Array as="points">
              <mxPoint x="70" y="429" />
              <mxPoint x="70" y="453" />
            </Array>
          </mxGeometry>
        </mxCell>
        <mxCell id="H2qDwa9pVDV-4ezduEQk-55" style="edgeStyle=orthogonalEdgeStyle;rounded=0;orthogonalLoop=1;jettySize=auto;html=1;exitX=1;exitY=0.5;exitDx=0;exitDy=0;entryX=1;entryY=0;entryDx=0;entryDy=0;dashed=1;endArrow=none;endFill=0;strokeColor=#000000;" edge="1" parent="H2qDwa9pVDV-4ezduEQk-1" source="H2qDwa9pVDV-4ezduEQk-56" target="H2qDwa9pVDV-4ezduEQk-32">
          <mxGeometry relative="1" as="geometry">
            <mxPoint x="812" y="484.2499999999999" as="targetPoint" />
            <Array as="points">
              <mxPoint x="845" y="429" />
            </Array>
          </mxGeometry>
        </mxCell>
        <mxCell id="H2qDwa9pVDV-4ezduEQk-56" value="~648 VDC" style="text;html=1;strokeColor=none;fillColor=none;align=center;verticalAlign=middle;whiteSpace=wrap;rounded=0;rotation=0;" vertex="1" parent="H2qDwa9pVDV-4ezduEQk-1">
          <mxGeometry x="431" y="419.25" width="70" height="20" as="geometry" />
        </mxCell>
        <mxCell id="H2qDwa9pVDV-4ezduEQk-57" value="&lt;b&gt;&lt;br&gt;........................................&lt;/b&gt;" style="text;html=1;strokeColor=none;fillColor=none;align=center;verticalAlign=middle;whiteSpace=wrap;rounded=0;" vertex="1" parent="H2qDwa9pVDV-4ezduEQk-1">
          <mxGeometry x="378.25" y="531.25" width="159" height="20" as="geometry" />
        </mxCell>
        <mxCell id="H2qDwa9pVDV-4ezduEQk-58" value="180S Pack" style="text;html=1;strokeColor=none;fillColor=none;align=center;verticalAlign=middle;whiteSpace=wrap;rounded=0;" vertex="1" parent="H2qDwa9pVDV-4ezduEQk-1">
          <mxGeometry x="418" y="399.25" width="105" height="17" as="geometry" />
        </mxCell>
        <mxCell id="H2qDwa9pVDV-4ezduEQk-59" style="edgeStyle=orthogonalEdgeStyle;rounded=0;orthogonalLoop=1;jettySize=auto;html=1;exitX=1;exitY=0.5;exitDx=0;exitDy=0;entryX=0;entryY=0.5;entryDx=0;entryDy=0;endArrow=none;endFill=0;strokeColor=#82b366;shape=link;fillColor=#d5e8d4;strokeWidth=1;" edge="1" parent="H2qDwa9pVDV-4ezduEQk-1" source="H2qDwa9pVDV-4ezduEQk-36" target="H2qDwa9pVDV-4ezduEQk-39">
          <mxGeometry relative="1" as="geometry" />
        </mxCell>
        <mxCell id="H2qDwa9pVDV-4ezduEQk-60" style="edgeStyle=orthogonalEdgeStyle;shape=link;rounded=0;orthogonalLoop=1;jettySize=auto;html=1;exitX=1;exitY=0.5;exitDx=0;exitDy=0;entryX=0;entryY=0.5;entryDx=0;entryDy=0;endArrow=none;endFill=0;strokeColor=#82b366;strokeWidth=1;fillColor=#d5e8d4;" edge="1" parent="H2qDwa9pVDV-4ezduEQk-1" source="H2qDwa9pVDV-4ezduEQk-39" target="H2qDwa9pVDV-4ezduEQk-42">
          <mxGeometry relative="1" as="geometry" />
        </mxCell>
        <mxCell id="H2qDwa9pVDV-4ezduEQk-61" style="edgeStyle=orthogonalEdgeStyle;shape=link;rounded=0;orthogonalLoop=1;jettySize=auto;html=1;exitX=1;exitY=0.5;exitDx=0;exitDy=0;entryX=0;entryY=0.5;entryDx=0;entryDy=0;endArrow=none;endFill=0;strokeColor=#82b366;strokeWidth=1;fillColor=#d5e8d4;" edge="1" parent="H2qDwa9pVDV-4ezduEQk-1" source="H2qDwa9pVDV-4ezduEQk-42" target="H2qDwa9pVDV-4ezduEQk-45">
          <mxGeometry relative="1" as="geometry" />
        </mxCell>
        <mxCell id="H2qDwa9pVDV-4ezduEQk-62" style="edgeStyle=orthogonalEdgeStyle;shape=link;rounded=0;orthogonalLoop=1;jettySize=auto;html=1;exitX=1;exitY=0.5;exitDx=0;exitDy=0;entryX=0.5;entryY=1;entryDx=0;entryDy=0;endArrow=none;endFill=0;strokeColor=#82b366;strokeWidth=1;fillColor=#d5e8d4;" edge="1" parent="H2qDwa9pVDV-4ezduEQk-1" source="H2qDwa9pVDV-4ezduEQk-45" target="H2qDwa9pVDV-4ezduEQk-50">
          <mxGeometry relative="1" as="geometry" />
        </mxCell>
        <mxCell id="H2qDwa9pVDV-4ezduEQk-63" style="edgeStyle=orthogonalEdgeStyle;shape=link;rounded=0;orthogonalLoop=1;jettySize=auto;html=1;exitX=0.5;exitY=1;exitDx=0;exitDy=0;endArrow=none;endFill=0;strokeColor=#000000;strokeWidth=3;" edge="1" parent="H2qDwa9pVDV-4ezduEQk-1" source="H2qDwa9pVDV-4ezduEQk-57" target="H2qDwa9pVDV-4ezduEQk-57">
          <mxGeometry relative="1" as="geometry" />
        </mxCell>
        <mxCell id="H2qDwa9pVDV-4ezduEQk-64" value="Battery CAN" style="edgeStyle=orthogonalEdgeStyle;shape=link;rounded=0;orthogonalLoop=1;jettySize=auto;html=1;exitX=0.5;exitY=0;exitDx=0;exitDy=0;entryX=0.25;entryY=0;entryDx=0;entryDy=0;endArrow=none;endFill=0;strokeWidth=1;fillColor=#ffcc99;strokeColor=#FF0000;" edge="1" parent="H2qDwa9pVDV-4ezduEQk-1" source="H2qDwa9pVDV-4ezduEQk-17" target="H2qDwa9pVDV-4ezduEQk-50">
          <mxGeometry relative="1" as="geometry">
            <Array as="points">
              <mxPoint x="876" y="203" />
              <mxPoint x="876" y="535" />
            </Array>
          </mxGeometry>
        </mxCell>
        <mxCell id="H2qDwa9pVDV-4ezduEQk-65" value="ESCU" style="rounded=0;whiteSpace=wrap;html=1;fillColor=#e1d5e7;strokeColor=#9673a6;container=1;direction=south;" vertex="1" parent="H2qDwa9pVDV-4ezduEQk-1">
          <mxGeometry x="810" y="710" width="28" height="100" as="geometry">
            <mxRectangle x="10" y="105" width="54" height="18" as="alternateBounds" />
          </mxGeometry>
        </mxCell>
        <mxCell id="H2qDwa9pVDV-4ezduEQk-66" style="edgeStyle=orthogonalEdgeStyle;shape=link;rounded=0;orthogonalLoop=1;jettySize=auto;html=1;exitX=0.75;exitY=0;exitDx=0;exitDy=0;endArrow=none;endFill=0;strokeWidth=3;fillColor=#ffff88;strokeColor=#FFB570;" edge="1" parent="H2qDwa9pVDV-4ezduEQk-1">
          <mxGeometry relative="1" as="geometry">
            <mxPoint x="1040" y="785" as="targetPoint" />
            <mxPoint x="838" y="790" as="sourcePoint" />
            <Array as="points">
              <mxPoint x="838" y="785" />
            </Array>
          </mxGeometry>
        </mxCell>
        <mxCell id="H2qDwa9pVDV-4ezduEQk-67" value="Vehicle CAN" style="edgeLabel;html=1;align=center;verticalAlign=middle;resizable=0;points=[];" vertex="1" connectable="0" parent="H2qDwa9pVDV-4ezduEQk-66">
          <mxGeometry x="0.1996" y="1" relative="1" as="geometry">
            <mxPoint y="1" as="offset" />
          </mxGeometry>
        </mxCell>
      </root>
    </mxGraphModel>
  </diagram>
</mxfile>
